<svg width="80" height="79" viewBox="0 0 80 79" fill="none" xmlns="http://www.w3.org/2000/svg">
<g id="Frame" clip-path="url(#clip0_430_7895)">
<g id="Vector">
<mask id="path-1-inside-1_430_7895" fill="white">
<path fill-rule="evenodd" clip-rule="evenodd" d="M45.2973 39L41.4595 33.3186H5C5 33.3186 5.20724 5.57625 39.5405 3.00548C46.3604 2.94296 67.4397 2.94107 76 31.4222"/>
</mask>
<path d="M41.4595 33.3186L46.4314 29.96L44.6471 27.3186H41.4595V33.3186ZM5 33.3186L-0.999833 33.2737L-1.04499 39.3186H5V33.3186ZM39.5405 3.00548L39.4855 -2.99427L39.2888 -2.99246L39.0925 -2.97777L39.5405 3.00548ZM50.2692 35.6414L46.4314 29.96L36.4875 36.6771L40.3254 42.3586L50.2692 35.6414ZM41.4595 27.3186H5V39.3186H41.4595V27.3186ZM5 33.3186C10.9998 33.3634 10.9998 33.3669 10.9998 33.3703C10.9998 33.3713 10.9997 33.3746 10.9997 33.3766C10.9997 33.3807 10.9996 33.3843 10.9996 33.3875C10.9995 33.394 10.9994 33.3988 10.9994 33.4021C10.9993 33.4087 10.9992 33.4089 10.9994 33.4032C10.9997 33.3916 11.0008 33.3558 11.0036 33.2975C11.0093 33.1805 11.0219 32.9741 11.0489 32.6903C11.1031 32.1211 11.2144 31.2524 11.4402 30.1795C11.8951 28.0183 12.7931 25.1321 14.5436 22.2075C17.8642 16.6595 24.7261 10.1315 39.9885 8.98873L39.0925 -2.97777C20.0217 -1.5498 9.61331 7.0788 4.24699 16.0447C1.65401 20.3769 0.354371 24.587 -0.302511 27.7078C-0.632572 29.2759 -0.805776 30.5947 -0.89701 31.5526C-0.942713 32.0325 -0.968105 32.4246 -0.982225 32.7153C-0.989289 32.8607 -0.993546 32.981 -0.996109 33.0746C-0.99739 33.1214 -0.998249 33.1615 -0.998823 33.1948C-0.999111 33.2114 -0.999327 33.2263 -0.999489 33.2395C-0.99957 33.2461 -0.999638 33.2522 -0.999695 33.2579C-0.999722 33.2608 -0.999759 33.2647 -0.999771 33.2662C-0.999804 33.27 -0.999833 33.2737 5 33.3186ZM39.5955 9.00523C42.873 8.97518 48.6192 9.0049 54.4609 11.8897C60.0483 14.649 66.415 20.3768 70.2539 33.1493L81.7461 29.6952C77.0247 13.9865 68.5716 5.47462 59.7743 1.13022C51.2313 -3.08865 43.0279 -3.02674 39.4855 -2.99427L39.5955 9.00523Z" fill="white" mask="url(#path-1-inside-1_430_7895)"/>
</g>
<g id="Vector_2">
<mask id="path-3-inside-2_430_7895" fill="white">
<path fill-rule="evenodd" clip-rule="evenodd" d="M35.1351 39L39.0262 44.8401H76C76 44.8401 75.7903 73.3534 40.9718 75.9942C34.0574 76.0595 12.6794 76.0614 4 46.7881"/>
</mask>
<path d="M39.0262 44.8401L34.0331 48.167L35.8141 50.8401H39.0262V44.8401ZM76 44.8401L81.9998 44.8842L82.0443 38.8401H76V44.8401ZM40.9718 75.9942L41.0284 81.994L41.2273 81.9921L41.4256 81.9771L40.9718 75.9942ZM30.1419 42.3269L34.0331 48.167L44.0194 41.5132L40.1283 35.6731L30.1419 42.3269ZM39.0262 50.8401H76V38.8401H39.0262V50.8401ZM76 44.8401C70.0002 44.796 70.0002 44.7925 70.0002 44.7891C70.0002 44.7881 70.0003 44.7849 70.0003 44.7829C70.0003 44.779 70.0004 44.7754 70.0004 44.7723C70.0005 44.7661 70.0005 44.7615 70.0006 44.7586C70.0007 44.7526 70.0007 44.7532 70.0005 44.76C70.0002 44.7735 69.999 44.812 69.996 44.8738C69.9901 44.9976 69.9771 45.2136 69.9493 45.5092C69.8936 46.1022 69.7796 47.0041 69.5485 48.1166C69.0831 50.3576 68.165 53.3474 66.3765 56.3758C62.9784 62.1298 55.99 68.838 40.5181 70.0114L41.4256 81.9771C60.7721 80.5097 71.2978 71.6408 76.7092 62.4779C79.3254 58.0479 80.6358 53.7443 81.2979 50.5565C81.6305 48.9547 81.8049 47.6083 81.8967 46.6317C81.9426 46.1425 81.9681 45.7433 81.9823 45.4481C81.9893 45.3004 81.9936 45.1784 81.9961 45.084C81.9974 45.0367 81.9983 44.9963 81.9988 44.9629C81.9991 44.9463 81.9993 44.9313 81.9995 44.9182C81.9996 44.9117 81.9996 44.9055 81.9997 44.8999C81.9997 44.897 81.9998 44.8931 81.9998 44.8917C81.9998 44.8879 81.9998 44.8842 76 44.8401ZM40.9152 69.9945C37.5951 70.0258 31.7647 69.9964 25.8332 67.0276C20.1525 64.1844 13.6626 58.2704 9.75248 45.0825L-1.75248 48.4936C3.01676 64.5791 11.5556 73.3008 20.4623 77.7586C29.1183 82.091 37.4342 82.0279 41.0284 81.994L40.9152 69.9945Z" fill="white" mask="url(#path-3-inside-2_430_7895)"/>
</g>
</g>
<defs>
<clipPath id="clip0_430_7895">
<rect width="80" height="80" fill="white"/>
</clipPath>
</defs>
</svg>
